<svg width="179" height="40" viewBox="0 0 179 40" fill="none" xmlns="http://www.w3.org/2000/svg">
<path d="M1.65766 0.310425C0.777031 0.310425 0 1.03487 0 1.9663V18.1111C0 18.9908 0.72523 19.767 1.65766 19.767C2.5383 19.767 3.31533 19.0425 3.31533 18.1111V1.9663C3.31533 1.03487 2.5901 0.310425 1.65766 0.310425Z" fill="black"/>
<path d="M18.9594 0.517456H7.045C6.26797 0.517456 5.59454 1.19015 5.59454 1.96634C5.59454 2.74254 6.26797 3.41524 7.045 3.41524H11.3446V18.1111C11.3446 18.9909 12.0698 19.767 13.0022 19.767C13.8829 19.767 14.6599 19.0425 14.6599 18.1111V3.41524H18.9594C19.7365 3.41524 20.4099 2.74254 20.4099 1.96634C20.3581 1.19015 19.7365 0.517456 18.9594 0.517456Z" fill="black"/>
<path d="M40.2502 2.5873C40.7164 1.96635 40.7164 1.03492 40.0948 0.465715C39.4732 -0.155238 38.4371 -0.155238 37.7637 0.465715L32.4281 5.79557L31.3921 6.83048L29.838 5.2781L29.3718 4.81239C28.7501 4.19143 27.7141 4.19143 27.0407 4.81239C26.4191 5.43334 26.4191 6.46826 27.0407 7.14096L27.5069 7.60668L30.1488 10.2457C30.1488 10.2457 30.1488 10.2457 30.2006 10.2975C30.2006 10.2975 30.2006 10.2975 30.2524 10.3492C30.874 10.9701 31.9101 10.9701 32.5835 10.3492L35.0182 7.91715L36.9348 6.00254L40.0948 2.84604C40.1984 2.6908 40.2502 2.63905 40.2502 2.5873Z" fill="black"/>
<path d="M114.431 1.34535C114.275 0.931378 113.809 0.310425 112.928 0.310425C112.048 0.310425 111.582 0.931378 111.426 1.34535L104.744 17.5418C104.64 17.7489 104.64 17.9559 104.64 18.1111C104.64 18.9908 105.365 19.7152 106.246 19.7152C106.971 19.7152 107.541 19.2495 107.748 18.6285L109.458 14.5406H116.296L118.005 18.6285C118.264 19.1978 118.782 19.7152 119.507 19.7152C120.388 19.7152 121.113 18.9908 121.113 18.1111C121.113 17.9559 121.061 17.6971 121.009 17.5418L114.431 1.34535ZM110.649 11.5911L112.98 5.69202L115.311 11.5911H110.649Z" fill="black"/>
<path d="M139.865 1.9663C139.865 1.08662 139.14 0.310425 138.208 0.310425C137.327 0.310425 136.55 1.03487 136.55 1.9663V18.1111C136.55 18.9908 137.275 19.767 138.208 19.767C139.088 19.767 139.865 19.0425 139.865 18.1111V1.9663Z" fill="black"/>
<path d="M132.872 0.517456H120.958C120.181 0.517456 119.507 1.19015 119.507 1.96634C119.507 2.74254 120.181 3.41524 120.958 3.41524H125.257V18.1111C125.257 18.9909 125.983 19.767 126.915 19.767C127.796 19.767 128.573 19.0425 128.573 18.1111V3.41524H132.872C133.649 3.41524 134.323 2.74254 134.323 1.96634C134.323 1.19015 133.649 0.517456 132.872 0.517456Z" fill="black"/>
<path d="M24.2952 0.620972C23.4145 0.620972 22.6375 1.34542 22.6375 2.27684V18.1111C22.6375 18.9908 23.3627 19.767 24.2952 19.767C25.1758 19.767 25.9528 19.0426 25.9528 18.1111V2.27684C25.9528 1.34542 25.1758 0.620972 24.2952 0.620972Z" fill="black"/>
<path d="M152.35 0.155273C146.652 0.155273 143.388 3.36353 143.388 10.0388C143.388 16.6106 146.652 19.9222 152.35 19.9222C158.048 19.9222 161.312 16.6622 161.312 10.0388C161.312 3.36353 158.048 0.155273 152.35 0.155273ZM152.35 16.9727C148.62 16.9727 146.807 14.6959 146.807 10.0388C146.807 5.38163 148.62 3.05306 152.35 3.05306C156.08 3.05306 157.893 5.32988 157.893 10.0388C157.945 14.6959 156.08 16.9727 152.35 16.9727Z" fill="black"/>
<path d="M178.302 18.1111V1.91455C178.302 1.03487 177.577 0.310425 176.697 0.310425C175.816 0.310425 175.091 1.03487 175.091 1.91455V13.0917L166.751 0.983123C166.492 0.569155 166.025 0.310425 165.455 0.310425C164.575 0.310425 163.85 1.03487 163.85 1.91455V18.1111C163.85 18.9908 164.575 19.7152 165.455 19.7152C166.336 19.7152 167.061 18.9908 167.061 18.1111V7.03741L175.35 19.0425C175.609 19.4565 176.127 19.767 176.697 19.767C177.577 19.7152 178.302 18.9908 178.302 18.1111Z" fill="black"/>
<path d="M102.568 18.1111V1.91455C102.568 1.03487 101.843 0.310425 100.963 0.310425C100.082 0.310425 99.3567 1.03487 99.3567 1.91455V13.0917L91.0166 0.983123C90.7576 0.569155 90.2913 0.310425 89.7215 0.310425C88.8409 0.310425 88.1157 1.03487 88.1157 1.91455V18.1111C88.1157 18.9908 88.8409 19.7152 89.7215 19.7152C90.6022 19.7152 91.3274 18.9908 91.3274 18.1111V7.03741L99.6675 19.0425C99.9265 19.4565 100.445 19.767 101.014 19.767C101.843 19.7152 102.568 18.9908 102.568 18.1111Z" fill="black"/>
<path d="M59.2615 17.5418L52.579 1.34535C52.4237 0.931378 51.9574 0.310425 51.0768 0.310425C50.1961 0.310425 49.7299 0.931378 49.5745 1.34535L42.8921 17.5418C42.7885 17.7489 42.7885 17.9559 42.7885 18.1111C42.7885 18.9908 43.5137 19.7152 44.3943 19.7152C45.1195 19.7152 45.6894 19.2495 45.8966 18.6285L47.606 14.5406H54.4957L56.2052 18.6285C56.4642 19.1978 56.9822 19.7152 57.7074 19.7152C58.5881 19.7152 59.3133 18.9908 59.3133 18.1111C59.3651 17.9559 59.3133 17.7489 59.2615 17.5418ZM48.7457 11.5911L51.0768 5.69202L53.4079 11.5911H48.7457Z" fill="black"/>
<path d="M37.3492 10.7633V14.6443V18.1112C37.3492 18.991 38.0744 19.7672 39.0068 19.7672C39.8875 19.7672 40.6645 19.0427 40.6645 18.1112V14.6443V10.7633V3.82935L37.401 7.39983L37.3492 10.7633Z" fill="black"/>
<path d="M75.1131 9.31429H69.6221C68.8451 9.31429 68.1716 9.98704 68.1716 10.7632C68.1716 11.5394 68.8451 12.2121 69.6221 12.2121H73.4555V15.3686C72.3676 16.507 70.8654 16.9727 68.7933 16.9727C65.0635 16.9727 63.3541 14.9546 63.3541 10.0387C63.3541 5.38162 65.0635 3.05304 68.7933 3.05304C70.8654 3.05304 72.0568 3.77749 73.2483 5.0194C73.6108 5.43336 74.0253 5.5886 74.3879 5.5886C75.2168 5.5886 75.8902 4.9159 75.8902 4.08796C75.8902 3.77749 75.7866 3.51876 75.5793 3.15653C74.4397 1.44891 72.2122 0.103516 68.7933 0.103516C63.1987 0.103516 59.9351 3.31177 59.9351 9.98704C59.9351 16.8692 63.1469 19.8705 68.7933 19.8705C71.7978 19.8705 74.8023 18.5768 76.1492 16.8175C76.5118 16.4035 76.6154 15.9896 76.6154 15.3169V10.8149C76.6672 9.98704 75.9419 9.31429 75.1131 9.31429Z" fill="black"/>
<path d="M82.3134 19.7152C83.1941 19.7152 83.9711 18.9908 83.9711 18.0593V1.9663C83.9711 1.08662 83.2459 0.310425 82.3134 0.310425C81.4328 0.310425 80.6558 1.03487 80.6558 1.9663V18.1111C80.7076 18.9908 81.4328 19.7152 82.3134 19.7152Z" fill="black"/>
<path d="M59.9349 23.1823C59.5722 23.1823 59.3132 23.4927 59.3132 23.8032V35.4978C59.3132 35.8601 59.5722 36.1188 59.9349 36.1188C60.2975 36.1188 60.5565 35.8083 60.5565 35.4978V23.855C60.5565 23.4927 60.2975 23.1823 59.9349 23.1823Z" fill="black"/>
<path d="M72.6783 27.2184C71.2278 27.2184 70.399 27.7876 69.9328 28.512C69.4666 27.7358 68.4823 27.2184 66.9282 27.2184C65.685 27.2184 64.8044 27.8393 64.4936 28.512V27.8911C64.4936 27.5289 64.2345 27.2701 63.8719 27.2701C63.5093 27.2701 63.2503 27.5289 63.2503 27.8911V35.4978C63.2503 35.86 63.5093 36.1187 63.8719 36.1187C64.2345 36.1187 64.4936 35.86 64.4936 35.4978V30.8406C64.4936 29.2365 65.0634 28.2016 66.8246 28.2016C68.6895 28.2016 69.1557 29.2365 69.1557 30.6854V35.446C69.1557 35.8082 69.4147 36.067 69.7774 36.067C70.14 36.067 70.399 35.8082 70.399 35.446V30.4266C70.399 29.0295 71.1242 28.1498 72.73 28.1498C74.5432 28.1498 75.0611 29.1847 75.0611 30.6336V35.3943C75.0611 35.7565 75.3202 36.0152 75.6828 36.0152C76.0454 36.0152 76.3044 35.7565 76.3044 35.3943V30.3749C76.2526 28.926 75.5792 27.2184 72.6783 27.2184Z" fill="black"/>
<path d="M81.64 27.2184C80.0342 27.2184 79.0499 27.8911 78.5319 28.719C78.4801 28.8225 78.4283 28.926 78.4283 29.0295C78.4283 29.34 78.6873 29.5987 78.9981 29.5987C79.1535 29.5987 79.3089 29.547 79.4643 29.34C80.0342 28.6673 80.6558 28.3568 81.64 28.3568C83.0387 28.3568 83.8675 29.133 83.8675 30.4266V30.9441H81.2256C79.2053 30.9441 77.9103 31.9273 77.9103 33.5832C77.9103 35.2908 79.1535 36.2739 81.1738 36.2739C82.3134 36.2739 83.4013 35.8082 83.8675 34.9285V35.6013C83.8675 35.9117 84.1265 36.1704 84.4373 36.1704C84.7481 36.1704 85.0071 35.9117 85.0071 35.6013V30.4266C85.059 28.4603 83.8157 27.2184 81.64 27.2184ZM83.8675 32.7552C83.8675 34.3593 82.6243 35.1355 81.2774 35.1355C79.827 35.1355 79.1535 34.5146 79.1535 33.5314C79.1535 32.4447 79.9824 31.9273 81.2256 31.9273H83.8675V32.7552Z" fill="black"/>
<path d="M90.6018 27.2184C88.1671 27.2184 86.7167 28.6673 86.7167 31.772C86.7167 34.8768 88.1671 36.274 90.6018 36.274C91.8451 36.274 92.6739 35.7047 93.1401 35.1355V36.2222C93.1401 37.9298 92.0523 38.706 90.4982 38.706C89.3068 38.706 88.737 38.2403 88.2707 37.8263C88.1153 37.6711 87.9599 37.6194 87.8045 37.6194C87.4937 37.6194 87.2347 37.8781 87.2347 38.1885C87.2347 38.3438 87.2865 38.4473 87.3383 38.5508C87.9599 39.327 88.996 39.8444 90.4982 39.8444C92.6221 39.8444 94.3316 38.8095 94.3316 36.2222V30.8924C94.3834 28.4085 92.7775 27.2184 90.6018 27.2184ZM93.1401 33.6349C93.1401 33.6349 92.3631 35.1355 90.6018 35.1355C88.8924 35.1355 87.9081 34.0489 87.9081 31.7203C87.9081 29.3917 88.8924 28.3051 90.6018 28.3051C92.0005 28.3051 93.1401 29.133 93.1401 30.9441V33.6349Z" fill="black"/>
<path d="M97.1809 27.322C96.8183 27.322 96.5593 27.5808 96.5593 27.943V35.5497C96.5593 35.9119 96.8183 36.1706 97.1809 36.1706C97.5436 36.1706 97.8026 35.9119 97.8026 35.5497V27.8912C97.8026 27.5808 97.5436 27.322 97.1809 27.322Z" fill="black"/>
<path d="M97.1803 24.0619C96.7141 24.0619 96.4551 24.2689 96.4551 24.8381C96.4551 25.3038 96.7141 25.5625 97.1803 25.5625C97.6465 25.5625 97.9055 25.3038 97.9055 24.8381C97.9055 24.2689 97.6465 24.0619 97.1803 24.0619Z" fill="black"/>
<path d="M103.966 27.2184C102.723 27.2184 101.842 27.8393 101.48 28.512V27.8911C101.48 27.5289 101.221 27.2701 100.858 27.2701C100.496 27.2701 100.237 27.5289 100.237 27.8911V35.4978C100.237 35.86 100.496 36.1187 100.858 36.1187C101.221 36.1187 101.48 35.86 101.48 35.4978V30.8406C101.48 29.34 102.102 28.2016 103.966 28.2016C105.779 28.2016 106.246 29.2365 106.246 30.6854V35.446C106.246 35.8082 106.505 36.067 106.867 36.067C107.23 36.067 107.489 35.8082 107.489 35.446V30.4266C107.385 28.926 106.815 27.2184 103.966 27.2184Z" fill="black"/>
<path d="M112.981 27.2184C110.546 27.2184 109.096 28.8225 109.096 31.7203C109.096 34.8768 110.65 36.2739 113.136 36.2739C114.794 36.2739 115.778 35.4978 116.089 35.239C116.193 35.1355 116.296 35.032 116.296 34.8251C116.296 34.5146 116.037 34.2558 115.726 34.2558C115.571 34.2558 115.519 34.3076 115.364 34.3593C114.846 34.7733 114.172 35.1873 113.085 35.1873C111.323 35.1873 110.235 33.9971 110.235 32.1343H115.726C116.503 32.1343 116.503 31.4616 116.503 30.9441C116.555 29.5987 115.985 27.2184 112.981 27.2184ZM110.339 30.9958C110.443 29.34 111.375 28.2533 112.981 28.2533C114.898 28.2533 115.364 29.6504 115.364 30.9958H110.339Z" fill="black"/>
<path d="M123.496 27.322C123.133 27.322 122.874 27.5808 122.874 27.943V35.5497C122.874 35.9119 123.133 36.1706 123.496 36.1706C123.859 36.1706 124.118 35.9119 124.118 35.5497V27.8912C124.118 27.5808 123.807 27.322 123.496 27.322Z" fill="black"/>
<path d="M123.496 24.0619C123.03 24.0619 122.771 24.2689 122.771 24.8381C122.771 25.3038 123.03 25.5625 123.496 25.5625C123.963 25.5625 124.222 25.3038 124.222 24.8381C124.222 24.2689 123.963 24.0619 123.496 24.0619Z" fill="black"/>
<path d="M129.453 28.564C129.764 28.564 130.023 28.3052 130.023 27.9948C130.023 27.6843 129.764 27.4256 129.453 27.4256H128.21V25.4592C128.21 25.1487 127.951 24.8383 127.588 24.8383C127.277 24.8383 126.966 25.097 126.966 25.4592V27.4256H126.241C125.93 27.4256 125.671 27.6843 125.671 27.9948C125.671 28.3052 125.93 28.564 126.241 28.564H126.966V33.7386C126.966 35.1357 127.795 36.1189 129.246 36.1189C129.557 36.1189 129.816 35.8602 129.816 35.5497C129.816 35.2393 129.557 34.9805 129.246 34.9805C128.624 34.9805 128.158 34.5665 128.158 33.7386V28.564H129.453Z" fill="black"/>
<path d="M132.095 34.3595C131.525 34.3595 131.215 34.6182 131.215 35.2392C131.215 35.8601 131.577 36.1189 132.095 36.1189C132.613 36.1189 132.976 35.8601 132.976 35.2392C132.976 34.6182 132.613 34.3595 132.095 34.3595Z" fill="black"/>
<path d="M142.87 23.3376H140.228C139.866 23.3376 139.607 23.5964 139.607 23.9586V35.3427C139.607 35.705 139.866 35.9637 140.228 35.9637H142.87C146.444 35.9637 148.672 34.3078 148.672 29.6507C148.672 24.9935 146.444 23.3376 142.87 23.3376ZM142.87 34.8252H140.85V24.5278H142.87C145.667 24.5278 147.377 25.8215 147.377 29.7024C147.377 33.5833 145.667 34.8252 142.87 34.8252Z" fill="black"/>
<path d="M154.111 27.2184C151.676 27.2184 150.174 28.6673 150.174 31.7203C150.174 34.7733 151.676 36.2739 154.111 36.2739C156.546 36.2739 158.048 34.8251 158.048 31.7203C158.048 28.6155 156.546 27.2184 154.111 27.2184ZM154.111 35.1355C152.401 35.1355 151.365 34.1006 151.365 31.7203C151.365 29.34 152.35 28.3051 154.111 28.3051C155.872 28.3051 156.856 29.34 156.856 31.7203C156.856 34.1006 155.82 35.1355 154.111 35.1355Z" fill="black"/>
<path d="M163.643 27.2184C162.4 27.2184 161.519 27.8393 161.157 28.512V27.8911C161.157 27.5289 160.898 27.2701 160.535 27.2701C160.172 27.2701 159.913 27.5289 159.913 27.8911V35.4978C159.913 35.86 160.172 36.1187 160.535 36.1187C160.898 36.1187 161.157 35.86 161.157 35.4978V30.8406C161.157 29.34 161.778 28.2016 163.643 28.2016C165.456 28.2016 165.922 29.2365 165.922 30.6854V35.446C165.922 35.8082 166.181 36.067 166.544 36.067C166.907 36.067 167.166 35.8082 167.166 35.446V30.4266C167.114 28.926 166.544 27.2184 163.643 27.2184Z" fill="black"/>
<path d="M172.657 27.2184C170.222 27.2184 168.771 28.8225 168.771 31.7203C168.771 34.8768 170.326 36.2739 172.812 36.2739C174.47 36.2739 175.454 35.4978 175.765 35.239C175.868 35.1355 175.972 35.032 175.972 34.8251C175.972 34.5146 175.713 34.2558 175.402 34.2558C175.247 34.2558 175.195 34.3076 175.04 34.3593C174.522 34.7733 173.848 35.1873 172.76 35.1873C170.999 35.1873 169.911 33.9971 169.911 32.1343H175.402C176.179 32.1343 176.179 31.4616 176.179 30.9441C176.283 29.5987 175.661 27.2184 172.657 27.2184ZM170.015 30.9958C170.118 29.34 171.051 28.2533 172.657 28.2533C174.573 28.2533 175.04 29.6504 175.04 30.9958H170.015Z" fill="black"/>
<path d="M178.044 34.3595C177.474 34.3595 177.163 34.6182 177.163 35.2392C177.163 35.8601 177.526 36.1189 178.044 36.1189C178.562 36.1189 178.925 35.8601 178.925 35.2392C178.925 34.6182 178.562 34.3595 178.044 34.3595Z" fill="black"/>
</svg>
